<?xml version="1.0" standalone="no"?>
<!DOCTYPE svg PUBLIC "-//W3C//DTD SVG 20010904//EN"
 "http://www.w3.org/TR/2001/REC-SVG-20010904/DTD/svg10.dtd">
<svg version="1.0" xmlns="http://www.w3.org/2000/svg"
 width="1171.000000pt" height="1069.000000pt" viewBox="0 0 1171.000000 1069.000000"
 preserveAspectRatio="xMidYMid meet">

<g transform="translate(0.000000,1069.000000) scale(0.100000,-0.100000)"
fill="#fff" stroke="none">
<path d="M7015 10343 c-71 -16 -182 -60 -245 -97 -539 -318 -1042 -1254 -1156
-2146 -14 -111 -16 -184 -11 -410 3 -151 13 -340 22 -420 9 -80 16 -185 16
-235 -1 -108 23 -443 44 -614 44 -353 173 -767 361 -1156 32 -66 60 -124 63
-130 2 -5 -4 -3 -14 5 -41 34 -222 325 -295 475 -125 255 -197 475 -239 727
-26 156 -44 427 -35 542 7 87 6 88 -14 77 -49 -26 -163 -179 -213 -284 -76
-164 -95 -372 -51 -582 62 -299 123 -500 248 -823 169 -436 282 -758 270 -770
-13 -12 -157 223 -255 418 -181 355 -277 638 -311 915 -6 50 -13 104 -16 121
-4 30 -14 37 -157 107 -222 110 -364 208 -547 379 -393 366 -778 819 -996
1171 -131 210 -251 474 -343 748 -23 69 -48 134 -55 144 -21 28 -52 10 -152
-89 -79 -78 -98 -104 -138 -188 -88 -180 -102 -319 -56 -549 61 -304 244 -644
529 -984 85 -102 367 -385 489 -490 44 -38 79 -71 77 -73 -2 -2 -47 19 -101
46 -169 85 -327 197 -473 336 -205 195 -438 563 -522 827 -18 57 -35 106 -36
108 -1 2 -14 -4 -28 -13 -65 -43 -111 -229 -88 -359 32 -181 158 -413 406
-747 83 -112 163 -198 468 -502 202 -203 364 -368 360 -368 -15 0 -191 95
-271 147 -262 170 -532 455 -716 756 -37 61 -61 91 -66 84 -22 -34 -50 -153
-55 -239 -12 -199 44 -422 166 -661 93 -184 136 -243 285 -396 165 -168 281
-257 586 -451 146 -93 491 -332 486 -337 -7 -8 -251 90 -382 152 -142 67 -292
152 -392 221 -35 24 -64 44 -66 44 -2 0 2 -31 9 -69 51 -263 301 -578 640
-805 183 -124 441 -248 625 -303 53 -16 124 -27 190 -31 l105 -7 -105 -71
c-136 -91 -278 -173 -467 -268 -84 -42 -153 -79 -153 -84 1 -16 -53 -527 -56
-531 -1 -1 -74 -7 -161 -12 -188 -11 -388 -39 -573 -80 -618 -137 -983 -357
-1060 -639 l-13 -45 -13 35 -14 35 6 -50 c8 -70 47 -179 79 -221 49 -65 128
-98 259 -110 l72 -6 59 93 c78 123 198 272 282 349 105 96 328 261 438 322
181 101 375 166 583 193 134 18 132 18 132 5 0 -5 -9 -10 -21 -10 -40 0 -225
-52 -324 -91 -263 -103 -390 -195 -730 -529 -148 -146 -303 -290 -344 -320
l-74 -54 6 -70 c15 -197 129 -316 387 -402 75 -26 99 -29 209 -29 l123 0 19
75 c58 226 158 392 353 584 237 233 499 417 827 582 154 77 197 84 79 13 -457
-275 -809 -604 -1026 -959 -57 -93 -184 -348 -184 -368 0 -27 86 -155 138
-204 117 -112 225 -148 467 -155 150 -5 180 -3 259 16 259 62 583 292 778 553
157 210 304 508 406 829 40 125 105 391 118 482 6 43 9 48 28 43 395 -99 725
-139 959 -118 225 21 356 57 552 151 197 95 359 215 536 397 141 147 243 279
437 573 198 299 267 379 395 459 182 114 357 167 615 187 101 8 188 17 193 21
17 10 -45 64 -81 70 -133 20 -169 42 -206 120 -29 62 -131 157 -212 198 -103
52 -159 61 -402 61 -194 0 -240 -3 -336 -23 -150 -30 -355 -91 -489 -145 -60
-25 -111 -44 -112 -43 -1 1 5 24 13 51 25 83 71 291 98 450 66 388 98 889 78
1243 -26 459 -88 708 -337 1362 -158 415 -180 519 -179 870 0 204 4 268 22
380 32 198 94 436 177 685 89 267 98 301 87 320 -7 13 -15 12 -58 -11 -27 -14
-81 -50 -120 -80 -187 -142 -311 -329 -404 -608 -23 -71 -51 -137 -61 -147
-11 -11 -19 -25 -19 -32 0 -19 39 -166 124 -470 153 -544 190 -784 216 -1384
25 -598 -65 -1185 -240 -1562 -24 -50 -45 -90 -46 -88 -2 2 12 43 31 92 72
183 120 390 152 660 25 214 25 852 0 1075 -44 387 -74 537 -204 1024 -163 610
-171 668 -155 1086 9 225 16 296 36 390 42 197 98 361 186 548 32 67 53 121
47 121 -7 -1 -21 -3 -32 -6z m1896 -5952 c56 -57 23 -141 -56 -141 -80 0 -115
93 -54 144 40 34 74 33 110 -3z"/>
</g>
</svg>
